<?xml version="1.0" encoding="UTF-8" standalone="no"?>
<!DOCTYPE svg PUBLIC "-//W3C//DTD SVG 1.1//EN" "http://www.w3.org/Graphics/SVG/1.1/DTD/svg11.dtd">
<svg version="1.1" xmlns="http://www.w3.org/2000/svg" xmlns:xlink="http://www.w3.org/1999/xlink" preserveAspectRatio="xMidYMid meet" viewBox="-1 -1 641 570.2222222222222" width="637" height="566.22"><defs><path d="M513.14 0C474.21 0 162.79 0 123.86 0C100.5 0 81.04 14.86 73.61 35.74C66.64 55.81 10.86 216.33 3.89 236.4C1.42 243.83 0 251.61 0 259.75C0 285.09 0 487.8 0 513.14C0 542.51 23.71 566.22 53.08 566.22C82.46 566.22 106.17 542.51 106.17 513.14C106.17 511.96 106.17 506.06 106.17 495.44L530.83 495.44C530.83 506.06 530.83 511.96 530.83 513.14C530.83 542.16 554.54 566.22 583.92 566.22C612.94 566.22 637 542.51 637 513.14C637 487.8 637 285.09 637 259.75C637 251.97 635.58 243.83 633.11 236.4C628.46 223.02 605.22 156.14 563.39 35.74C545.46 11.91 528.71 0 513.14 0ZM70.78 336.19C70.78 306.82 94.49 283.11 123.86 283.11C153.23 283.11 176.94 306.82 176.94 336.19C176.94 365.57 153.23 389.28 123.86 389.28C94.49 389.28 70.78 365.57 70.78 336.19ZM460.06 336.19C460.06 306.82 483.77 283.11 513.14 283.11C542.51 283.11 566.22 306.82 566.22 336.19C566.22 365.57 542.51 389.28 513.14 389.28C483.77 389.28 460.06 365.57 460.06 336.19ZM115.72 77.15C120.68 62.99 134.12 53.08 149.34 53.08C183.17 53.08 453.83 53.08 487.66 53.08C502.88 53.08 516.32 62.99 521.28 77.15C524.27 86.16 539.26 131.22 566.22 212.33L70.78 212.33C97.74 131.22 112.73 86.16 115.72 77.15Z" id="b2pJtgF5M"></path></defs><g><g><use xlink:href="#b2pJtgF5M" opacity="1" fill="#3f51b5" fill-opacity="1"></use><g><use xlink:href="#b2pJtgF5M" opacity="1" fill-opacity="0" stroke="#000000" stroke-width="1" stroke-opacity="0"></use></g></g></g></svg>