<?xml version="1.0" standalone="no"?>
<!DOCTYPE svg PUBLIC "-//W3C//DTD SVG 20010904//EN"
 "http://www.w3.org/TR/2001/REC-SVG-20010904/DTD/svg10.dtd">
<svg version="1.0" xmlns="http://www.w3.org/2000/svg"
 width="700.000000pt" height="700.000000pt" viewBox="0 0 700.000000 700.000000"
 preserveAspectRatio="xMidYMid meet">
<metadata>
Created by potrace 1.11, written by Peter Selinger 2001-2013
</metadata>
<g transform="translate(0.000000,700.000000) scale(0.100000,-0.100000)"
fill="#000000" stroke="none">
<path d="M3210 6769 c-632 -55 -1245 -301 -1760 -707 -123 -97 -414 -389 -516
-517 -791 -999 -938 -2351 -379 -3490 240 -489 616 -928 1070 -1246 540 -380
1205 -589 1875 -589 1053 0 2030 500 2658 1360 768 1049 829 2492 155 3607
-152 252 -275 407 -507 638 -233 232 -431 383 -713 544 -382 217 -857 361
-1318 401 -138 11 -426 11 -565 -1z m1792 -1282 c63 -31 135 -92 198 -167 39
-46 60 -101 296 -782 140 -403 259 -760 265 -793 6 -39 9 -392 7 -1016 l-3
-955 -38 -76 c-118 -239 -416 -290 -602 -103 -82 82 -114 169 -115 313 l0 82
-1509 0 -1508 0 -6 -107 c-7 -164 -54 -258 -167 -335 -172 -118 -403 -72 -522
102 -70 103 -68 68 -68 1110 0 602 4 956 10 992 6 31 128 393 270 805 272 782
287 818 363 876 44 33 109 65 154 76 22 5 663 8 1478 8 l1440 -2 57 -28z"/>
<path d="M2200 5119 c-54 -24 -105 -71 -129 -119 -10 -19 -86 -243 -170 -497
-83 -254 -154 -469 -157 -478 -6 -13 169 -15 1756 -15 1570 0 1762 2 1756 15
-3 8 -75 226 -159 483 -85 257 -161 481 -170 497 -22 43 -75 91 -127 114 -44
20 -59 21 -1300 21 -1241 0 -1256 -1 -1300 -21z"/>
<path d="M2005 3484 c-73 -23 -155 -83 -198 -145 -52 -74 -70 -143 -65 -243 6
-106 40 -177 120 -251 186 -172 477 -117 590 113 30 61 33 74 33 162 0 86 -3
101 -31 160 -63 131 -179 209 -322 216 -53 3 -93 -1 -127 -12z"/>
<path d="M4797 3489 c-106 -25 -201 -104 -251 -209 -28 -59 -31 -74 -31 -160
0 -88 3 -101 33 -162 112 -228 402 -285 588 -116 79 73 116 150 122 254 5 100
-13 169 -65 243 -87 124 -248 185 -396 150z"/>
</g>
</svg>
